<svg width="33" height="32" viewBox="0 0 33 32" fill="none" xmlns="http://www.w3.org/2000/svg">
<g clip-path="url(#clip0_296_683)">
<path d="M0.821289 16C0.821289 7.16344 7.98473 0 16.8213 0C25.6578 0 32.8213 7.16344 32.8213 16C32.8213 24.8366 25.6578 32 16.8213 32C7.98473 32 0.821289 24.8366 0.821289 16Z" fill="#0F43F9"/>
<g clip-path="url(#clip1_296_683)">
<path d="M10.6818 17.975C10.1458 17.1321 9.14676 15.9745 9.14676 14.9729C9.15861 14.6481 9.26829 14.3345 9.46142 14.0732C9.65454 13.8118 9.92211 13.6149 10.2291 13.5082C10.1796 12.6653 10.1458 11.8068 10.1458 10.9561C10.1458 10.454 10.1458 9.94668 10.1744 9.44978C10.2006 9.13374 10.2572 8.82097 10.3435 8.51583C10.7357 7.23844 11.5901 6.15316 12.7397 5.47202C13.1509 5.2207 13.5868 5.01234 14.0406 4.85025C14.8705 4.55107 15.3472 3.53535 16.25 3.51714C18.36 3.46251 20.9403 5.02195 22.2932 6.48662C23.1554 7.44009 23.6458 8.67194 23.6747 9.95708L23.5888 13.6513C23.7884 13.6927 23.9744 13.7838 24.1295 13.9161C24.2845 14.0484 24.4037 14.2177 24.476 14.4083C24.7648 15.5764 23.555 17.0255 22.9931 17.9542C22.4727 18.8101 20.4902 21.5782 20.4902 21.5964C20.501 21.7549 20.5631 21.9056 20.6671 22.0256C23.7449 26.2557 32.8213 23.5859 32.8213 31.9993H16.9548L0.821289 32C0.821289 23.584 9.87003 26.2584 12.9453 22.0282C13.0962 21.8071 13.1664 21.6848 13.1638 21.5886C13.1638 21.5339 10.8847 18.3106 10.6818 17.9854V17.975Z" fill="white"/>
</g>
</g>
<defs>
<clipPath id="clip0_296_683">
<path d="M0.821289 16C0.821289 7.16344 7.98473 0 16.8213 0C25.6578 0 32.8213 7.16344 32.8213 16C32.8213 24.8366 25.6578 32 16.8213 32C7.98473 32 0.821289 24.8366 0.821289 16Z" fill="white"/>
</clipPath>
<clipPath id="clip1_296_683">
<rect width="32" height="32" fill="white" transform="translate(0.821289)"/>
</clipPath>
</defs>
</svg>
